<svg xmlns="http://www.w3.org/2000/svg" xmlns:xlink="http://www.w3.org/1999/xlink" width="2000" zoomAndPan="magnify" viewBox="0 0 1500 1499.999933" height="2000" preserveAspectRatio="xMidYMid meet" version="1.2"><defs><filter x="0%" y="0%" width="100%" filterUnits="objectBoundingBox" id="16c3d7f1d6" height="100%"><feColorMatrix values="0 0 0 0 1 0 0 0 0 1 0 0 0 0 1 0 0 0 1 0" type="matrix" in="SourceGraphic"/></filter><clipPath id="aded36fab1"><rect x="0" width="557" y="0" height="930"/></clipPath><clipPath id="e3d5ec081d"><path d="M 457.390625 518.316406 L 740 518.316406 L 740 801.683594 L 457.390625 801.683594 Z M 457.390625 518.316406 "/></clipPath></defs><g id="c4cf9e1def"><rect x="0" width="1500" y="0" height="1499.999933" style="fill:#ffffff;fill-opacity:1;stroke:none;"/><rect x="0" width="1500" y="0" height="1499.999933" style="fill:#ffffff;fill-opacity:1;stroke:none;"/><g mask="url(#f1435d9858)" transform="matrix(1,0,0,1,471,255)"><g clip-path="url(#aded36fab1)"><g style="fill:#000000;fill-opacity:1;"><g transform="translate(1.840882, 750.189812)"><path style="stroke:none" d="M 341.671875 -546.1875 C 348.160156 -562.425781 381.976562 -570.546875 443.125 -570.546875 C 458.8125 -570.546875 478.148438 -569.328125 501.140625 -566.890625 C 524.140625 -564.453125 535.640625 -562.148438 535.640625 -559.984375 L 397.671875 -279.1875 L 540.515625 -10.546875 C 542.140625 -7.847656 530.503906 -5.28125 505.609375 -2.84375 C 480.722656 -0.40625 459.625 0.8125 442.3125 0.8125 C 373.59375 0.8125 335.988281 -8.382812 329.5 -26.78125 L 268.625 -181.796875 L 213.4375 -21.90625 C 208.03125 -6.757812 173.40625 0.8125 109.5625 0.8125 C 93.875 0.8125 74.394531 -0.269531 51.125 -2.4375 C 27.863281 -4.601562 17.316406 -7.578125 19.484375 -11.359375 L 146.078125 -292.171875 L 14.609375 -559.984375 C 12.984375 -562.691406 24.207031 -565.257812 48.28125 -567.6875 C 72.363281 -570.125 92.789062 -571.34375 109.5625 -571.34375 C 177.738281 -571.34375 215.070312 -561.609375 221.5625 -542.140625 L 277.5625 -405.78125 Z M 341.671875 -546.1875 "/></g></g></g><mask id="f1435d9858"><g filter="url(#16c3d7f1d6)"><rect x="0" width="1500" y="0" height="1499.999933" style="fill:#000000;fill-opacity:0.5;stroke:none;"/></g></mask></g><g style="fill:#000000;fill-opacity:1;"><g transform="translate(84.302709, 859.842253)"><path style="stroke:none" d="M 180.34375 -89.75 L 181.203125 -148.140625 C 181.203125 -152.148438 185.351562 -154.796875 193.65625 -156.078125 C 201.957031 -157.367188 208.828125 -158.015625 214.265625 -158.015625 L 231.015625 -156.734375 C 241.890625 -155.015625 247.328125 -152.003906 247.328125 -147.703125 L 245.609375 -13.3125 C 239.890625 -9.300781 228.367188 -5.363281 211.046875 -1.5 C 193.722656 2.363281 173.898438 4.296875 151.578125 4.296875 C 110.066406 4.296875 76.570312 -9.15625 51.09375 -36.0625 C 25.613281 -62.976562 12.875 -102.484375 12.875 -154.578125 C 12.875 -198.953125 25.328125 -235.019531 50.234375 -262.78125 C 75.140625 -290.550781 109.632812 -304.4375 153.71875 -304.4375 C 173.757812 -304.4375 191.863281 -302.503906 208.03125 -298.640625 C 224.207031 -294.773438 235.300781 -289.550781 241.3125 -282.96875 C 241.601562 -280.675781 241.75 -276.378906 241.75 -270.078125 C 241.75 -263.785156 239.597656 -254.84375 235.296875 -243.25 C 231.003906 -231.65625 226.140625 -222.992188 220.703125 -217.265625 C 215.265625 -211.546875 211.328125 -208.6875 208.890625 -208.6875 C 206.460938 -208.6875 203.890625 -209.757812 201.171875 -211.90625 C 198.453125 -214.050781 193.082031 -216.335938 185.0625 -218.765625 C 177.050781 -221.203125 169.320312 -222.421875 161.875 -222.421875 C 144.132812 -222.421875 129.75 -216.695312 118.71875 -205.25 C 107.695312 -193.800781 102.1875 -176.050781 102.1875 -152 C 102.1875 -127.957031 107.835938 -109.707031 119.140625 -97.25 C 130.453125 -84.800781 143.476562 -78.578125 158.21875 -78.578125 C 172.96875 -78.578125 180.34375 -82.300781 180.34375 -89.75 Z M 180.34375 -89.75 "/></g></g><g style="fill:#000000;fill-opacity:1;"><g transform="translate(350.901681, 859.842253)"><path style="stroke:none" d="M 103.484375 -6.015625 C 103.484375 -1.429688 89.882812 0.859375 62.6875 0.859375 C 35.207031 0.859375 21.46875 -1.285156 21.46875 -5.578125 L 21.46875 -285.546875 C 21.46875 -295.566406 26.765625 -300.578125 37.359375 -300.578125 L 119.375 -300.578125 C 194.65625 -300.578125 232.296875 -271.234375 232.296875 -212.546875 C 232.296875 -194.796875 228.859375 -178.691406 221.984375 -164.234375 C 215.117188 -149.785156 205.390625 -138.265625 192.796875 -129.671875 L 246.90625 -39.5 C 244.613281 -32.632812 237.171875 -24.765625 224.578125 -15.890625 C 207.398438 -3.578125 193.226562 2.578125 182.0625 2.578125 C 170.894531 2.578125 162.59375 -1.429688 157.15625 -9.453125 L 116.796875 -103.484375 L 103.484375 -103.484375 Z M 103.484375 -224.578125 L 103.484375 -160.15625 L 105.625 -160.15625 C 132.820312 -160.15625 146.421875 -171.460938 146.421875 -194.078125 C 146.421875 -204.390625 143.769531 -212.050781 138.46875 -217.0625 C 133.175781 -222.070312 124.519531 -224.578125 112.5 -224.578125 Z M 103.484375 -224.578125 "/></g></g><g style="fill:#000000;fill-opacity:1;"><g transform="translate(604.192443, 859.842253)"><path style="stroke:none" d="M 137.1875 4.296875 C 101.257812 4.296875 71.914062 -8.867188 49.15625 -35.203125 C 26.40625 -61.546875 15.03125 -100.050781 15.03125 -150.71875 C 15.03125 -201.382812 26.476562 -239.671875 49.375 -265.578125 C 72.28125 -291.484375 101.835938 -304.4375 138.046875 -304.4375 C 174.253906 -304.4375 203.523438 -291.550781 225.859375 -265.78125 C 248.191406 -240.019531 259.359375 -201.234375 259.359375 -149.421875 C 259.359375 -97.609375 247.976562 -59.035156 225.21875 -33.703125 C 202.457031 -8.367188 173.113281 4.296875 137.1875 4.296875 Z M 137.1875 -222 C 126.164062 -222 116.863281 -215.769531 109.28125 -203.3125 C 101.695312 -190.863281 97.90625 -173.1875 97.90625 -150.28125 C 97.90625 -127.382812 101.550781 -109.851562 108.84375 -97.6875 C 116.144531 -85.519531 125.59375 -79.4375 137.1875 -79.4375 C 148.78125 -79.4375 158.226562 -85.585938 165.53125 -97.890625 C 172.832031 -110.203125 176.484375 -127.804688 176.484375 -150.703125 C 176.484375 -173.609375 172.6875 -191.21875 165.09375 -203.53125 C 157.507812 -215.84375 148.207031 -222 137.1875 -222 Z M 137.1875 -222 "/></g></g><g style="fill:#000000;fill-opacity:1;"><g transform="translate(878.519248, 859.842253)"><path style="stroke:none" d="M 9.015625 -296.28125 C 8.160156 -299.425781 22.617188 -301 52.390625 -301 C 85.304688 -301 102.191406 -298.28125 103.046875 -292.84375 L 124.09375 -112.078125 L 169.609375 -294.984375 C 171.035156 -299.285156 182.195312 -301.4375 203.09375 -301.4375 C 224 -301.4375 235.164062 -299.429688 236.59375 -295.421875 L 281.25 -111.21875 L 306.15625 -293.703125 C 306.726562 -296.847656 313.3125 -298.992188 325.90625 -300.140625 C 338.5 -301.285156 348.660156 -301.859375 356.390625 -301.859375 C 386.453125 -301.859375 401.050781 -299.851562 400.1875 -295.84375 L 348.234375 -11.171875 C 347.085938 -6.867188 338.925781 -3.71875 323.75 -1.71875 C 308.582031 0.28125 296.273438 1.28125 286.828125 1.28125 C 251.335938 1.28125 232.734375 -2.722656 231.015625 -10.734375 L 201.8125 -128.8125 L 170.03125 -11.171875 C 168.894531 -6.015625 158.878906 -2.289062 139.984375 0 C 130.242188 0.851562 120.507812 1.28125 110.78125 1.28125 L 83.296875 0 C 64.410156 -2 54.394531 -5.578125 53.25 -10.734375 Z M 9.015625 -296.28125 "/></g></g><g style="fill:#000000;fill-opacity:1;"><g transform="translate(623.034772, 864.164014)"><path style="stroke:none" d="M 117.109375 -277.34375 C 149.378906 -277.34375 173.742188 -264.882812 190.203125 -239.96875 C 206.660156 -215.050781 214.890625 -180.34375 214.890625 -135.84375 C 214.890625 -91.207031 206.660156 -56.300781 190.203125 -31.125 C 173.742188 -5.945312 149.378906 6.640625 117.109375 6.640625 C 84.578125 6.640625 60.144531 -5.945312 43.8125 -31.125 C 27.488281 -56.300781 19.328125 -91.207031 19.328125 -135.84375 C 19.328125 -180.34375 27.488281 -215.050781 43.8125 -239.96875 C 60.144531 -264.882812 84.578125 -277.34375 117.109375 -277.34375 Z M 117.109375 -232.65625 C 103.316406 -232.65625 93.234375 -225.269531 86.859375 -210.5 C 80.484375 -195.726562 77.296875 -170.84375 77.296875 -135.84375 C 77.296875 -108.78125 78.460938 -88.222656 80.796875 -74.171875 C 83.140625 -60.117188 87.207031 -50.550781 93 -45.46875 C 98.789062 -40.394531 106.828125 -37.859375 117.109375 -37.859375 C 126.347656 -37.859375 133.863281 -40.984375 139.65625 -47.234375 C 145.445312 -53.484375 149.707031 -63.796875 152.4375 -78.171875 C 155.164062 -92.546875 156.53125 -111.769531 156.53125 -135.84375 C 156.53125 -162.382812 155.359375 -182.617188 153.015625 -196.546875 C 150.671875 -210.472656 146.671875 -219.972656 141.015625 -225.046875 C 135.359375 -230.117188 127.390625 -232.65625 117.109375 -232.65625 Z M 147.75 -224.0625 L 163.5625 -190.296875 L 91.34375 -41.1875 L 73.578125 -68.890625 Z M 147.75 -224.0625 "/></g></g><path style=" stroke:none;fill-rule:nonzero;fill:#ffffff;fill-opacity:1;" d="M 738.449219 620.710938 L 714.179688 519.777344 L 625.035156 572.964844 L 648.96875 583.039062 C 597.515625 755.117188 459.101562 800.117188 459.101562 800.117188 C 622.96875 779.691406 697.890625 635.355469 710.328125 608.867188 L 738.449219 620.710938 "/><g clip-rule="nonzero" clip-path="url(#e3d5ec081d)"><path style=" stroke:none;fill-rule:nonzero;fill:#000000;fill-opacity:1;" d="M 738.449219 620.710938 L 739.847656 620.375 L 715.570312 519.445312 C 715.464844 519.003906 715.152344 518.636719 714.734375 518.457031 C 714.316406 518.285156 713.835938 518.316406 713.445312 518.550781 L 624.296875 571.734375 C 623.835938 572.007812 623.566406 572.527344 623.605469 573.066406 C 623.640625 573.601562 623.980469 574.074219 624.476562 574.285156 L 648.414062 584.359375 L 648.96875 583.039062 L 647.597656 582.628906 C 621.960938 668.359375 574.699219 722.371094 533.84375 754.988281 C 513.417969 771.300781 494.59375 782.25 480.890625 789.121094 C 474.039062 792.554688 468.464844 794.96875 464.613281 796.523438 C 462.683594 797.296875 461.1875 797.859375 460.179688 798.226562 C 459.675781 798.410156 459.289062 798.542969 459.03125 798.628906 C 458.90625 798.675781 458.808594 798.707031 458.746094 798.726562 L 458.65625 798.757812 C 457.953125 798.988281 457.539062 799.710938 457.699219 800.433594 C 457.859375 801.152344 458.542969 801.632812 459.273438 801.542969 C 541.609375 791.28125 601.609375 749.875 642.527344 707.765625 C 683.457031 665.648438 705.359375 622.8125 711.625 609.480469 L 710.328125 608.867188 L 709.773438 610.1875 L 737.894531 622.027344 C 738.390625 622.234375 738.96875 622.148438 739.378906 621.796875 C 739.789062 621.449219 739.96875 620.894531 739.847656 620.375 L 738.449219 620.710938 L 739.007812 619.390625 L 710.882812 607.546875 C 710.175781 607.25 709.359375 607.5625 709.035156 608.261719 C 702.859375 621.40625 681.082031 663.984375 640.476562 705.765625 C 599.855469 747.554688 540.460938 788.53125 458.921875 798.695312 L 459.101562 800.117188 L 459.542969 801.484375 C 459.65625 801.441406 494.414062 790.136719 535.632812 757.230469 C 576.847656 724.328125 624.527344 669.800781 650.34375 583.449219 C 650.550781 582.75 650.199219 582.003906 649.527344 581.71875 L 628.199219 572.742188 L 713.242188 522.007812 L 737.058594 621.042969 L 738.449219 620.710938 L 739.007812 619.390625 L 738.449219 620.710938 "/></g><g style="fill:#000000;fill-opacity:1;"><g transform="translate(1274.805636, 876.636692)"><path style="stroke:none" d="M 45.359375 -0.984375 C 45.359375 0.328125 40.738281 0.984375 31.5 0.984375 C 20.507812 0.546875 15.015625 -0.164062 15.015625 -1.15625 L 15.015625 -59.53125 L 6.59375 -59.53125 C 4.394531 -59.53125 3.296875 -63.328125 3.296875 -70.921875 C 3.296875 -72.898438 3.488281 -75.316406 3.875 -78.171875 C 4.257812 -81.023438 5.054688 -82.453125 6.265625 -82.453125 L 15.015625 -82.453125 L 15.015625 -96.96875 C 15.015625 -99.164062 19.65625 -100.265625 28.9375 -100.265625 C 38.226562 -100.265625 42.875 -99.390625 42.875 -97.640625 L 42.875 -87.078125 L 43.046875 -82.453125 L 57.0625 -82.453125 C 58.925781 -82.453125 59.859375 -78.601562 59.859375 -70.90625 C 59.859375 -63.21875 58.925781 -59.375 57.0625 -59.375 L 45.359375 -59.375 Z M 45.359375 -0.984375 "/></g></g><g style="fill:#000000;fill-opacity:1;"><g transform="translate(1335.494817, 876.636692)"><path style="stroke:none" d="M 34.96875 -1.15625 C 34.96875 -0.164062 30.375 0.328125 21.1875 0.328125 C 12.007812 0.328125 7.421875 -0.441406 7.421875 -1.984375 L 7.421875 -114.953125 C 7.421875 -115.722656 9.125 -116.269531 12.53125 -116.59375 C 15.9375 -116.925781 18.796875 -117.09375 21.109375 -117.09375 C 30.347656 -117.09375 34.96875 -116.101562 34.96875 -114.125 L 34.96875 -81.140625 C 41.125 -83.003906 45.796875 -83.9375 48.984375 -83.9375 C 57.335938 -83.9375 63.929688 -81.710938 68.765625 -77.265625 C 73.609375 -72.816406 76.03125 -64.539062 76.03125 -52.4375 L 76.03125 -1.3125 C 76.03125 -0.320312 71.742188 0.171875 63.171875 0.171875 C 53.492188 -0.160156 48.65625 -0.710938 48.65625 -1.484375 L 48.65625 -49.96875 C 48.65625 -55.351562 46.894531 -58.046875 43.375 -58.046875 C 40.957031 -58.046875 38.15625 -56.894531 34.96875 -54.59375 Z M 34.96875 -1.15625 "/></g></g></g></svg>